# xmcd
#
# Track frame offsets:
#	150
#	16720
#	37166
#	54185
#	65879
#	77009
#	89969
#	108538
#	128004
#	141152
#	153422
#	167616
#	177817
#	187330
#	198789
#	208093
#	220537
#	236375
#	250218
#	263232
#	279103
#
# Disc length: 3856 seconds
#
# Revision: 2
# Processed by: cddbd v1.5.2PL0 Copyright (c) Steve Scherf et al.
# Submitted via: EasyCDDAExtractor 12.0.1.1
#
DISCID=2a0f0e15
DTITLE=Johnny Cash - Complete Recording Sessions [Cd 05] 1958 Sessions
DYEAR=2005
DGENRE=Country
TTITLE0=Lead Me Father (T01-04)
TTITLE1=Lead Me Father (T05-09)
TTITLE2=Lead Me Father (T10-12)
TTITLE3=Lead Me Father (T13-)
TTITLE4=That's Enough (T01-)
TTITLE5=That's Enough (T04-)
TTITLE6=I Still Miss Someone (T01)
TTITLE7=I Still Miss Someone (T06-)
TTITLE8=I Still Miss Someone (T09-)
TTITLE9=I Still Miss Someone (M)
TTITLE10=One More Ride (T01-T04)
TTITLE11=One More Ride (T05-)
TTITLE12=One More Ride (T12-)
TTITLE13=Pickin' Time (T01-)
TTITLE14=Pickin' Time (T03-)
TTITLE15=Don'ttakeyourguns Totown(1-)
TTITLE16=Don'ttakeyourguns Totown(5-)
TTITLE17=Don'ttakeyourguns Totown(M)
TTITLE18=I'd Rather Die Young
TTITLE19=The Shepherd Of My Heart
TTITLE20=Cold Shoulder
EXTD=YEAR: 1990 ID3G: 2
EXTT0=
EXTT1=
EXTT2=
EXTT3=
EXTT4=
EXTT5=
EXTT6=
EXTT7=
EXTT8=
EXTT9=
EXTT10=
EXTT11=
EXTT12=
EXTT13=
EXTT14=
EXTT15=
EXTT16=
EXTT17=
EXTT18=
EXTT19=
EXTT20=
PLAYORDER=
